<svg width="49" height="50" viewBox="0 0 49 50" fill="none" xmlns="http://www.w3.org/2000/svg">
<path d="M21.2443 3.35358C22.9676 1.53232 25.867 1.53232 27.5903 3.35358L28.2421 4.04242C29.3157 5.17701 30.9133 5.65203 32.4324 5.28826L33.3286 5.07365C35.7429 4.49549 38.1531 6.04306 38.632 8.479L38.8565 9.62027C39.1515 11.1209 40.2099 12.3579 41.6468 12.8816L42.6922 13.2627C44.9822 14.0973 46.1462 16.6446 45.2783 18.9222L44.8112 20.1481C44.276 21.5525 44.5004 23.1334 45.4052 24.3334L46.1862 25.3691C47.6458 27.305 47.2497 30.0593 45.3035 31.5053L44.3217 32.2348C43.1075 33.137 42.4465 34.6031 42.5743 36.1104L42.681 37.368C42.8889 39.8182 41.0342 41.9571 38.5793 42.0983L37.5806 42.1557C36.0354 42.2446 34.6526 43.1445 33.9456 44.5214L33.4678 45.4518C32.3256 47.6763 29.5526 48.4897 27.3897 47.2348L26.6096 46.7821C25.2539 45.9955 23.5807 45.9955 22.225 46.7821L21.445 47.2348C19.2821 48.4897 16.5091 47.6763 15.3668 45.4518L14.889 44.5214C14.182 43.1446 12.7992 42.2446 11.254 42.1557L10.2554 42.0983C7.80041 41.9571 5.94574 39.8182 6.15361 37.368L6.2603 36.1104C6.38817 34.6031 5.72713 33.137 4.51291 32.2348L3.53114 31.5053C1.58498 30.0593 1.18879 27.305 2.64848 25.3691L3.42943 24.3334C4.33424 23.1334 4.55863 21.5525 4.02348 20.1481L3.55637 18.9222C2.68848 16.6446 3.85244 14.0973 6.14245 13.2627L7.18787 12.8816C8.62475 12.3579 9.68312 11.1209 9.97818 9.62027L10.2026 8.479C10.6816 6.04306 13.0918 4.49549 15.5061 5.07365L16.4023 5.28826C17.9213 5.65203 19.519 5.17702 20.5925 4.04242L21.2443 3.35358Z" fill="url(#paint0_linear_105_1055)"/>
<path d="M21.2443 3.35358C22.9676 1.53232 25.867 1.53232 27.5903 3.35358L28.2421 4.04242C29.3157 5.17701 30.9133 5.65203 32.4324 5.28826L33.3286 5.07365C35.7429 4.49549 38.1531 6.04306 38.632 8.479L38.8565 9.62027C39.1515 11.1209 40.2099 12.3579 41.6468 12.8816L42.6922 13.2627C44.9822 14.0973 46.1462 16.6446 45.2783 18.9222L44.8112 20.1481C44.276 21.5525 44.5004 23.1334 45.4052 24.3334L46.1862 25.3691C47.6458 27.305 47.2497 30.0593 45.3035 31.5053L44.3217 32.2348C43.1075 33.137 42.4465 34.6031 42.5743 36.1104L42.681 37.368C42.8889 39.8182 41.0342 41.9571 38.5793 42.0983L37.5806 42.1557C36.0354 42.2446 34.6526 43.1445 33.9456 44.5214L33.4678 45.4518C32.3256 47.6763 29.5526 48.4897 27.3897 47.2348L26.6096 46.7821C25.2539 45.9955 23.5807 45.9955 22.225 46.7821L21.445 47.2348C19.2821 48.4897 16.5091 47.6763 15.3668 45.4518L14.889 44.5214C14.182 43.1446 12.7992 42.2446 11.254 42.1557L10.2554 42.0983C7.80041 41.9571 5.94574 39.8182 6.15361 37.368L6.2603 36.1104C6.38817 34.6031 5.72713 33.137 4.51291 32.2348L3.53114 31.5053C1.58498 30.0593 1.18879 27.305 2.64848 25.3691L3.42943 24.3334C4.33424 23.1334 4.55863 21.5525 4.02348 20.1481L3.55637 18.9222C2.68848 16.6446 3.85244 14.0973 6.14245 13.2627L7.18787 12.8816C8.62475 12.3579 9.68312 11.1209 9.97818 9.62027L10.2026 8.479C10.6816 6.04306 13.0918 4.49549 15.5061 5.07365L16.4023 5.28826C17.9213 5.65203 19.519 5.17702 20.5925 4.04242L21.2443 3.35358Z" fill="url(#paint1_linear_105_1055)" fill-opacity="0.1"/>
<path d="M7.48798 24.8614C7.48798 15.5116 15.0675 7.93205 24.4173 7.93205V7.93205C33.7671 7.93205 41.3466 15.5116 41.3466 24.8613V25.7053C41.3466 35.0551 33.7671 42.6346 24.4173 42.6346V42.6346C15.0675 42.6346 7.48798 35.0551 7.48798 25.7053V24.8614Z" fill="black" fill-opacity="0.04"/>
<path d="M39.7156 24.8613V25.7053C39.7156 34.1543 32.8663 41.0036 24.4173 41.0036C15.9683 41.0036 9.11898 34.1543 9.11898 25.7053V24.8614C9.11898 16.4123 15.9683 9.56306 24.4173 9.56306C32.8663 9.56306 39.7156 16.4123 39.7156 24.8613Z" stroke="white" stroke-opacity="0.3" stroke-width="3.26201"/>
<path d="M21.6272 28.4188L18.3766 25.0871C18.2016 24.9073 17.964 24.8063 17.7162 24.8063C17.4684 24.8063 17.2308 24.9073 17.0557 25.0871C16.6904 25.4616 16.6904 26.0665 17.0557 26.4409L20.9715 30.4542C21.3368 30.8287 21.927 30.8287 22.2923 30.4542L32.2034 20.2961C32.5687 19.9217 32.5687 19.3168 32.2034 18.9423C32.0284 18.7625 31.7908 18.6615 31.543 18.6615C31.2952 18.6615 31.0576 18.7625 30.8825 18.9423L21.6272 28.4188Z" fill="white" stroke="#FDFDFD" stroke-width="0.652402"/>
<path d="M24.4173 9.82572C24.4173 8.83613 25.2218 8.02408 26.2058 8.12871C29.2601 8.45343 32.1843 9.60552 34.665 11.4795C37.6264 13.7167 39.7975 16.8634 40.8557 20.4521C41.9139 24.0408 41.8027 27.8801 40.5387 31.3996C39.2747 34.9192 36.9253 37.9311 33.8394 39.9881C30.7536 42.0451 27.0961 43.0373 23.4101 42.8175C19.7241 42.5976 16.2064 41.1773 13.3795 38.7676C10.5526 36.3579 8.56731 33.0873 7.7186 29.4417C7.00574 26.3797 7.12666 23.1903 8.05203 20.2104C8.34412 19.2698 9.40472 18.8549 10.3067 19.2506V19.2506C11.1953 19.6404 11.5925 20.6713 11.3268 21.6046C10.6791 23.8792 10.6156 26.2948 11.1565 28.618C11.8304 31.5131 13.407 34.1103 15.6519 36.0239C17.8968 37.9375 20.6903 39.0654 23.6175 39.24C26.5446 39.4146 29.4491 38.6266 31.8997 36.9931C34.3502 35.3596 36.2159 32.9678 37.2197 30.1728C38.2235 27.3779 38.3118 24.329 37.4714 21.4791C36.6311 18.6292 34.907 16.1304 32.5552 14.3537C30.6847 12.9407 28.4965 12.0445 26.2039 11.7369C25.2231 11.6053 24.4173 10.8153 24.4173 9.82572V9.82572Z" fill="white" fill-opacity="0.5"/>
<defs>
<linearGradient id="paint0_linear_105_1055" x1="8.57464" y1="4.63965" x2="35.9131" y2="47.1155" gradientUnits="userSpaceOnUse">
<stop stop-color="#FFE092"/>
<stop offset="1" stop-color="#E3A302"/>
</linearGradient>
<linearGradient id="paint1_linear_105_1055" x1="-8.38659" y1="-3.87027" x2="29.5285" y2="62.838" gradientUnits="userSpaceOnUse">
<stop stop-color="white"/>
<stop offset="1" stop-color="white" stop-opacity="0"/>
</linearGradient>
</defs>
</svg>
